<svg width="1084" height="648" viewBox="0 0 1084 648" fill="none" xmlns="http://www.w3.org/2000/svg">
<path d="M211.5 212.5C149.1 214.1 83.5 225.5 57.5 233.5C31.5 241.5 9.66667 256 1 260.5C17.4 515.7 262.167 574.5 382.5 572C419 640 462.5 648 472 647C479.6 646.2 475.167 632.667 472 626C473 615.5 471 606.5 479.5 601C486.3 596.6 476.667 579.833 471 572C501.8 572 545.833 563 564 558.5C578.4 588.5 625.333 612.667 647 621C682.6 627.8 732.167 618.167 752.5 612.5C748.5 590.9 727.167 581.167 717 579C707.8 549.8 677.833 542.833 664 543C665.2 534.2 659.5 524.667 656.5 521C796.5 457.8 901.833 273.667 937 189.5C1020.6 233.5 1068.83 214.833 1082.5 200C1040.9 151.6 984.833 142.833 962 144.5C989.6 100.1 988.5 30.3333 984.5 1C907.7 24.2 899.167 121.667 904.5 167.5C872.9 228.3 774 265.833 728.5 277C645.3 290.2 540.167 271.5 498 260.5C333.6 209.7 238.5 207.333 211.5 212.5Z" stroke="black"/>
</svg>
