<svg width="339" height="524" viewBox="0 0 339 524" fill="none" xmlns="http://www.w3.org/2000/svg">
<path d="M256 336C252.8 315.6 236 295.167 228 287.5L184.5 142C191.333 138.5 199 129 196.5 110.5C194.073 92.5392 177.167 91.8333 171.5 90C169.667 80.8333 164.7 58 159.5 40C153 24 151.5 1 126 1C105.6 1 92.8333 27 89 40C76.8333 110.667 51.3 259.8 46.5 291C21 320.5 1.99999 362 0.999985 384.5C0.199985 402.5 11 421 16.5 428C8.09997 482.8 72 500.167 105 502C119 511.2 144.5 516.833 155.5 518.5C177.167 522.667 222 527.6 228 514C234 500.4 221.833 486.667 215 481.5L228 473L267.5 481.5C286.667 483 327.2 482.3 336 467.5C344.8 452.7 318.667 433.333 304.5 425.5C300.9 417.5 288.333 413.833 282.5 413C286.5 389 266.5 351.667 256 336ZM256 336L233.5 318" stroke="black"/>
</svg>
